<?xml version="1.0" standalone="no"?>
<!DOCTYPE svg PUBLIC "-//W3C//DTD SVG 20010904//EN"
 "http://www.w3.org/TR/2001/REC-SVG-20010904/DTD/svg10.dtd">
<svg version="1.0" xmlns="http://www.w3.org/2000/svg"
 width="953.000000pt" height="1280.000000pt" viewBox="0 0 953.000000 1280.000000"
 preserveAspectRatio="xMidYMid meet">
<metadata>
Created by potrace 1.15, written by Peter Selinger 2001-2017
</metadata>
<g transform="translate(0.000000,1280.000000) scale(0.100000,-0.100000)"
fill="#000000" stroke="none">
<path d="M5225 12781 c-98 -18 -305 -70 -361 -92 -16 -6 -78 -19 -139 -30
-204 -36 -327 -79 -388 -134 -27 -24 -27 -27 -16 -65 7 -23 17 -39 24 -37 6 3
19 -1 30 -9 28 -21 96 -17 156 10 79 34 162 53 363 82 113 16 218 38 287 59
294 92 470 64 753 -120 167 -109 368 -191 589 -239 62 -13 168 -36 237 -51
220 -47 332 -104 410 -208 19 -25 70 -107 113 -181 77 -131 78 -136 88 -227
10 -105 38 -174 95 -244 44 -55 59 -57 50 -10 -15 79 11 27 101 -199 45 -115
58 -159 69 -248 27 -220 107 -404 259 -593 142 -176 147 -236 33 -378 -26 -33
-48 -64 -48 -68 0 -25 17 -40 51 -45 l39 -7 -21 -34 c-21 -33 -20 -63 2 -63
34 0 199 -93 379 -215 222 -150 339 -212 446 -240 91 -23 138 -43 164 -70 13
-13 30 -61 45 -125 14 -56 56 -182 94 -279 127 -327 139 -378 148 -626 5 -165
4 -194 -10 -222 -35 -67 -121 -102 -332 -134 -202 -30 -329 -80 -383 -149 -11
-14 -34 -52 -52 -85 -145 -269 -318 -373 -675 -405 -162 -14 -243 -30 -370
-70 -138 -44 -298 -123 -437 -216 -127 -86 -328 -249 -328 -266 0 -30 110 6
357 118 482 218 656 273 932 294 155 12 207 24 296 65 134 61 210 134 300 284
76 128 197 221 331 256 32 8 113 20 179 25 251 22 359 71 419 192 35 69 34
113 -9 397 -69 460 -125 650 -247 838 -117 179 -304 319 -518 388 -87 28 -185
81 -318 172 -145 98 -242 149 -318 166 l-56 13 36 28 c62 47 108 99 132 151
38 81 30 149 -29 245 -19 30 -53 86 -77 125 -108 175 -186 351 -360 820 -219
588 -357 856 -512 1000 -95 88 -177 126 -343 160 -257 53 -491 143 -895 345
-118 59 -256 121 -307 139 -85 29 -100 31 -225 30 -80 0 -173 -8 -233 -18z"/>
<path d="M3755 12760 c-79 -17 -153 -51 -310 -145 -435 -260 -833 -418 -1314
-520 -68 -14 -140 -33 -160 -41 -90 -38 -141 -105 -165 -219 -30 -141 -87
-268 -170 -378 -24 -32 -128 -144 -232 -250 -263 -267 -360 -416 -421 -645
-22 -82 -26 -119 -26 -242 -1 -124 3 -160 25 -250 15 -58 42 -143 61 -190 20
-48 31 -89 26 -94 -5 -5 -25 2 -50 18 -58 39 -113 56 -179 56 -68 0 -88 -13
-123 -80 -75 -141 -144 -261 -186 -324 -26 -39 -91 -136 -145 -216 -161 -240
-273 -493 -318 -720 -12 -63 -22 -179 -28 -340 -5 -135 -14 -285 -20 -335 -17
-153 -24 -696 -11 -814 14 -115 69 -343 106 -434 32 -78 87 -151 144 -189 25
-18 82 -61 126 -95 96 -76 260 -160 407 -207 59 -20 196 -54 305 -76 341 -70
635 -160 1023 -310 323 -126 442 -155 630 -154 99 0 142 5 205 23 167 47 298
140 446 317 79 95 144 133 269 160 183 39 434 -17 509 -112 41 -52 31 -92 -81
-316 -119 -236 -197 -357 -265 -412 -95 -77 -238 -125 -369 -126 -62 0 -104
-22 -104 -55 0 -19 134 -129 205 -167 146 -79 240 -31 589 301 87 83 161 150
163 147 2 -2 15 -84 28 -182 14 -99 39 -264 57 -369 27 -162 31 -216 32 -370
0 -153 -2 -185 -17 -212 -36 -67 -89 -67 -217 -3 -84 42 -113 47 -154 28 -29
-13 -30 -14 -50 -123 -29 -161 -39 -303 -33 -478 8 -244 45 -392 149 -597 32
-63 58 -115 58 -116 0 0 -46 -4 -102 -7 -57 -3 -128 -13 -158 -22 -77 -22
-237 -31 -283 -15 -79 25 -134 97 -163 212 -16 68 -16 68 -123 159 -128 110
-255 196 -376 254 -178 84 -407 142 -600 152 -97 5 -116 3 -157 -15 -93 -41
-97 -79 -29 -299 81 -263 170 -423 316 -568 76 -76 224 -185 293 -216 39 -17
40 -25 5 -34 -16 -3 -92 -33 -169 -66 -179 -74 -255 -93 -356 -86 -107 7 -113
16 -32 45 78 27 114 55 114 88 0 20 -6 23 -67 30 -105 11 -298 -2 -383 -26
-167 -47 -338 -156 -481 -307 -78 -83 -131 -162 -203 -303 -73 -141 -96 -221
-96 -326 0 -76 2 -84 19 -84 10 0 24 -7 32 -16 23 -29 88 -54 162 -64 89 -13
358 1 462 24 235 51 478 189 627 358 137 154 163 178 196 178 17 0 42 -5 55
-11 23 -10 25 -17 30 -122 5 -118 12 -151 82 -420 42 -157 58 -196 109 -255
57 -65 241 28 450 229 l114 109 6 -31 c3 -17 6 -79 6 -138 0 -194 31 -302 100
-348 54 -37 93 -31 200 33 103 61 120 66 293 89 264 35 474 129 698 311 83 68
290 280 350 359 135 179 189 323 189 510 0 105 -21 217 -60 314 -11 30 -19 56
-16 58 3 3 19 -5 35 -17 68 -48 192 -94 392 -145 115 -30 238 -68 273 -84 121
-58 230 -180 219 -245 -4 -26 -1 -37 14 -47 11 -8 25 -24 32 -36 6 -13 35 -33
64 -45 182 -77 381 -208 660 -434 115 -93 270 -215 345 -271 249 -186 287
-227 309 -330 7 -37 25 -92 38 -122 15 -32 25 -72 25 -100 1 -60 17 -131 36
-152 9 -10 39 -19 76 -23 102 -12 140 -39 229 -161 53 -73 187 -235 243 -293
85 -89 200 -138 303 -130 62 5 99 29 127 79 27 50 16 81 -58 158 -70 74 -246
294 -395 494 -196 264 -372 535 -667 1027 -87 146 -198 317 -246 380 -49 63
-126 164 -172 224 -187 243 -249 436 -212 653 9 51 13 99 10 107 -3 9 -36 34
-72 57 -92 57 -264 233 -341 349 -73 110 -212 388 -236 474 -19 67 -16 146 8
192 42 81 181 173 277 182 116 11 173 -30 281 -204 190 -306 375 -459 646
-531 135 -36 365 -38 523 -4 423 90 675 237 862 501 52 74 112 179 106 185 -2
2 -100 -28 -218 -66 -326 -107 -451 -139 -537 -139 -124 0 -169 28 -235 148
-136 246 -307 365 -593 413 -93 15 -703 13 -722 -2 -7 -6 -13 -24 -13 -40 0
-25 5 -29 43 -39 106 -25 196 -53 237 -72 101 -49 156 -131 162 -243 5 -81 21
-82 102 -6 36 34 68 61 70 61 13 0 68 -70 91 -116 32 -63 29 -79 -40 -196 -61
-105 -57 -107 -247 119 -169 202 -283 294 -428 344 -90 31 -234 31 -343 1
-111 -31 -133 -29 -176 16 -20 21 -47 65 -60 97 -14 33 -69 161 -124 285 -124
281 -216 514 -261 661 -19 63 -42 134 -50 158 -9 24 -16 53 -16 64 0 11 27 60
60 109 94 140 114 246 64 346 -40 81 -145 159 -286 213 -33 12 -58 28 -58 36
0 9 7 12 18 9 52 -15 90 -18 299 -20 258 -2 307 -11 430 -75 l73 -38 -27 49
c-32 59 -88 117 -135 141 -18 9 -76 33 -128 53 -277 106 -403 203 -403 308 0
89 57 127 270 180 76 18 199 57 273 86 179 70 416 152 515 180 111 31 151 52
268 138 120 88 181 119 254 128 29 3 53 8 53 11 0 2 -16 25 -35 50 -19 25 -35
53 -35 63 0 15 7 16 63 8 89 -13 207 5 283 42 120 59 189 173 224 373 20 109
20 120 5 143 -18 28 -42 30 -111 9 -78 -24 -121 -20 -155 14 -16 16 -29 35
-29 43 0 7 56 37 128 67 213 91 412 189 418 206 4 9 -4 35 -17 58 -17 31 -24
58 -24 102 0 53 7 75 59 183 75 158 77 191 16 372 -34 99 -41 133 -36 167 5
40 3 45 -37 83 -50 47 -75 50 -109 11 -15 -16 -30 -30 -35 -32 -5 -2 -23 -29
-40 -59 -16 -30 -53 -93 -82 -140 -28 -46 -61 -116 -72 -155 -29 -101 -64
-184 -133 -320 -70 -136 -121 -197 -260 -309 -50 -40 -110 -94 -133 -118 -40
-45 -41 -47 -41 -114 1 -55 -5 -86 -31 -151 -55 -140 -136 -194 -351 -232
-128 -23 -202 -50 -254 -93 -61 -50 -148 -166 -233 -310 -160 -274 -351 -411
-753 -543 -194 -64 -305 -103 -326 -117 -6 -4 -14 -43 -17 -86 -3 -43 -17
-108 -30 -145 -28 -77 -101 -208 -131 -236 -24 -22 -66 -37 -66 -23 0 5 29 65
65 134 35 69 69 147 76 173 23 93 -24 164 -147 221 -72 34 -84 46 -84 89 0 18
11 28 48 46 45 22 112 85 282 264 92 97 144 126 283 159 59 14 124 34 144 45
37 19 111 87 102 94 -11 10 -259 96 -292 102 -29 6 -54 23 -96 65 -108 108
-148 95 -279 -94 -38 -55 -116 -96 -197 -103 -141 -13 -471 117 -707 279 -156
107 -215 197 -225 345 -6 72 -5 73 30 108 19 19 42 35 50 35 8 0 44 -20 79
-44 35 -24 103 -60 152 -80 48 -20 131 -58 184 -85 130 -65 314 -149 382 -173
30 -11 80 -20 110 -20 56 -1 130 17 130 31 0 24 -109 79 -200 101 -49 12 -244
104 -272 128 -24 20 -23 73 3 124 30 60 21 101 -46 209 -57 93 -95 175 -95
208 0 39 -25 45 -110 27 -91 -20 -158 -14 -322 30 -113 30 -309 125 -398 193
-145 110 -318 323 -371 458 -18 45 -23 78 -24 148 0 119 23 169 139 295 159
173 252 330 411 694 89 205 179 391 221 457 32 52 30 59 -8 23 -21 -20 -29
-23 -25 -11 9 25 -6 15 -104 -68 -100 -85 -231 -232 -304 -341 -108 -160 -327
-614 -394 -817 -13 -37 -38 -93 -56 -123 -41 -69 -59 -149 -51 -228 6 -62 63
-194 132 -307 20 -33 42 -83 50 -112 18 -68 18 -174 -1 -227 -8 -23 -15 -66
-15 -95 0 -55 18 -90 81 -163 55 -63 72 -109 74 -207 2 -108 29 -196 85 -284
103 -160 226 -249 440 -321 255 -85 441 -210 551 -372 110 -161 226 -442 216
-520 -15 -110 -150 -201 -367 -248 -256 -56 -588 -49 -795 17 -76 24 -141 59
-203 110 -87 71 -163 103 -244 103 -76 0 -164 -28 -241 -77 l-48 -30 50 -45
c97 -87 200 -127 536 -207 72 -17 182 -51 245 -77 63 -25 167 -60 230 -77 106
-28 128 -31 285 -31 153 0 181 2 285 28 101 25 128 27 220 23 100 -5 270 -46
270 -65 0 -21 -103 -137 -148 -168 -98 -65 -149 -84 -232 -84 -90 0 -128 10
-242 61 -132 59 -217 79 -328 79 -200 -1 -358 -94 -538 -317 -109 -134 -208
-200 -338 -224 -103 -19 -164 -5 -634 147 -658 213 -951 319 -1275 461 -460
203 -594 299 -684 493 -64 138 -63 127 -71 800 -5 368 -4 655 2 715 24 258
119 548 269 819 90 163 239 383 300 445 107 107 214 129 367 76 94 -33 159
-29 198 10 30 31 30 43 -3 91 -57 84 -128 268 -159 416 -25 119 -23 297 5 413
26 110 110 284 183 380 29 38 119 138 199 221 210 216 298 342 365 521 35 93
65 143 115 187 59 54 107 72 261 101 355 65 714 211 1140 464 87 51 190 107
230 124 68 30 81 32 188 32 109 0 118 -2 180 -32 36 -17 84 -48 107 -67 22
-20 44 -36 47 -36 14 0 -62 108 -117 166 -91 98 -201 138 -312 114z m1012
-6939 c21 -12 56 -37 77 -56 38 -34 39 -36 20 -50 -18 -14 -17 -14 12 -9 23 4
47 -2 91 -25 34 -17 92 -37 129 -46 195 -45 196 -47 273 -266 65 -187 142
-399 244 -669 53 -140 125 -336 161 -435 97 -269 183 -472 321 -752 155 -316
227 -448 432 -796 165 -278 245 -433 282 -540 19 -54 19 -57 2 -57 -9 0 -33
16 -52 36 -43 46 -194 159 -282 213 -222 135 -455 228 -935 372 -129 38 -256
81 -282 94 -89 45 -120 110 -120 256 0 228 -99 414 -342 643 -70 66 -127 128
-138 152 -27 55 -25 131 5 237 66 227 89 414 110 892 8 193 20 399 26 459 6
59 9 109 7 111 -8 8 -71 -50 -94 -86 -13 -21 -37 -75 -54 -120 -16 -45 -41
-101 -55 -124 -24 -42 -90 -94 -102 -81 -9 8 -49 218 -68 349 -27 192 -18 240
55 277 102 52 204 59 277 21z"/>
<path d="M3895 12349 c-16 -5 -93 -21 -170 -35 -344 -62 -522 -107 -630 -161
-98 -48 -152 -119 -410 -543 -350 -573 -530 -814 -825 -1105 -160 -157 -190
-203 -190 -288 0 -42 7 -68 34 -118 57 -107 59 -180 9 -240 -28 -32 -153 -99
-186 -99 -35 0 -11 -25 45 -47 62 -25 163 -42 247 -43 29 0 79 -7 111 -15 65
-17 102 -10 119 24 17 31 14 47 -31 139 -38 77 -43 94 -43 157 0 98 35 167
174 340 137 171 252 342 447 670 170 285 221 348 317 383 32 12 67 22 78 22
33 0 75 27 88 57 8 19 10 94 9 228 -3 175 -1 205 15 240 40 89 111 128 317
176 72 16 163 42 202 56 75 28 215 115 283 176 42 38 40 42 -10 26z"/>
<path d="M3474 11844 c-52 -19 -115 -72 -156 -132 -17 -26 -50 -68 -73 -93
-55 -59 -61 -80 -37 -127 29 -57 52 -60 184 -26 96 24 133 29 243 29 111 0
140 -3 198 -23 37 -13 86 -39 108 -58 22 -19 45 -34 50 -34 6 0 23 -10 40 -22
l29 -22 88 22 c121 29 289 58 504 84 161 19 232 22 598 22 510 1 784 -19 890
-65 85 -38 123 -89 134 -180 10 -91 53 -224 112 -348 31 -64 74 -167 96 -228
48 -135 73 -163 146 -163 26 0 76 9 110 20 122 38 253 19 366 -54 28 -18 91
-69 140 -112 48 -43 116 -100 150 -127 81 -63 416 -274 441 -278 51 -8 102 60
83 111 -13 35 -32 54 -114 116 -96 72 -188 172 -315 339 -59 77 -134 174 -168
215 -101 123 -111 166 -81 342 22 129 -10 190 -105 203 -29 3 -65 17 -85 31
-19 14 -57 41 -84 59 -56 40 -85 43 -156 15 -109 -43 -160 -10 -160 106 l0 44
-32 -20 c-52 -31 -107 -26 -164 15 -27 19 -71 48 -99 65 l-50 30 -146 -6
c-241 -11 -367 29 -509 163 -83 78 -110 93 -169 93 -55 0 -472 -84 -571 -115
-47 -15 -147 -56 -223 -91 -329 -153 -450 -145 -650 43 -103 97 -163 134 -252
158 -76 19 -255 19 -311 -1z"/>
<path d="M5245 11340 c-33 -10 -96 -23 -140 -29 -44 -6 -179 -26 -299 -45
-120 -20 -267 -40 -325 -46 -58 -5 -160 -14 -226 -20 -66 -7 -131 -14 -144
-17 l-24 -6 28 -14 c57 -31 242 -101 290 -111 189 -40 343 -23 758 86 128 34
154 38 195 30 86 -17 147 -40 176 -67 35 -32 153 -175 140 -170 -5 2 -31 16
-59 30 -100 52 -151 64 -275 63 -130 -1 -153 -7 -474 -118 -246 -85 -257 -95
-271 -251 -6 -69 -5 -71 25 -100 l31 -30 292 -3 292 -3 100 -85 c152 -128 214
-153 269 -105 31 27 109 141 101 149 -3 4 -97 14 -208 23 l-202 17 343 1 c188
0 342 -2 342 -6 0 -20 -74 -232 -98 -281 -46 -95 -137 -167 -287 -227 -160
-63 -230 -110 -273 -183 -23 -41 -27 -57 -26 -127 0 -68 5 -91 32 -152 38 -84
38 -99 12 -233 -32 -156 -61 -206 -131 -223 -101 -25 -388 169 -754 511 -311
290 -329 391 -121 680 116 160 140 244 97 337 -34 76 -182 200 -252 211 -28 5
-39 1 -61 -21 -15 -15 -32 -42 -38 -61 -7 -19 -40 -95 -75 -168 -111 -234
-127 -320 -101 -531 20 -157 44 -260 87 -380 29 -82 72 -255 63 -255 -11 0
-125 167 -161 236 -66 126 -87 215 -85 364 1 137 -7 172 -44 189 -63 28 -113
2 -153 -81 -100 -212 -161 -405 -161 -513 0 -179 97 -357 255 -470 175 -125
358 -158 575 -105 133 33 229 32 296 -3 101 -52 155 -157 254 -493 93 -317
135 -404 232 -479 94 -73 273 -108 457 -88 100 11 147 28 189 67 38 34 50 67
67 180 9 59 27 146 41 194 35 125 145 341 274 537 164 252 235 410 282 628 28
134 30 387 4 522 -53 280 -163 553 -359 895 -69 121 -88 145 -138 171 -64 32
-231 96 -314 119 -43 12 -102 35 -130 51 -60 34 -102 36 -190 9z m904 -1460
c16 -41 34 -111 41 -155 48 -322 -187 -646 -550 -754 -66 -20 -81 -30 -135
-86 l-60 -62 -90 -17 c-156 -28 -303 -16 -412 35 l-48 22 63 8 c206 26 397
108 623 268 281 200 388 374 471 767 l22 106 23 -28 c13 -16 36 -63 52 -104z"/>
<path d="M3820 10895 c0 -59 -47 -147 -139 -260 -103 -127 -132 -184 -139
-275 -3 -42 -1 -70 5 -70 20 0 105 64 147 112 56 61 97 133 127 218 17 51 22
88 23 170 0 63 -5 113 -12 125 -10 18 -11 15 -12 -20z"/>
<path d="M4732 10454 c-97 -28 -155 -56 -268 -129 -84 -54 -129 -106 -152
-174 -15 -44 -15 -183 0 -233 28 -94 172 -181 254 -155 22 8 44 46 44 77 0 51
24 124 51 155 48 54 77 53 227 -10 125 -52 210 -51 332 6 143 67 168 137 90
259 -38 59 -120 138 -180 172 -109 64 -253 75 -398 32z"/>
<path d="M6642 10234 c4 -56 14 -102 36 -159 27 -67 32 -93 32 -165 0 -92 -21
-236 -46 -313 -9 -27 -14 -60 -11 -75 7 -36 -17 -183 -42 -255 -44 -126 -127
-247 -210 -303 -135 -92 -132 -89 -121 -120 16 -41 12 -239 -5 -281 -22 -51
-90 -149 -150 -214 -60 -65 -149 -228 -138 -254 5 -15 16 -17 64 -12 92 8 144
44 359 248 299 285 426 441 545 669 36 69 89 158 118 198 49 69 52 77 52 135
0 56 -4 68 -41 122 -81 118 -120 215 -190 475 -50 182 -81 260 -122 303 -31
32 -76 61 -111 72 l-24 7 5 -78z"/>
<path d="M1973 9335 c-36 -15 -56 -42 -87 -117 -12 -29 -38 -82 -58 -118 -20
-36 -50 -99 -66 -140 -15 -41 -51 -106 -78 -145 -28 -38 -78 -112 -112 -162
-51 -76 -67 -93 -87 -93 -29 0 -31 -7 -10 -30 14 -16 13 -25 -10 -93 -14 -42
-25 -81 -25 -89 0 -7 23 -35 49 -61 35 -34 69 -86 116 -177 44 -85 87 -152
126 -196 81 -92 89 -124 87 -339 -3 -188 5 -225 62 -296 19 -25 26 -40 19 -50
-14 -22 -11 -27 17 -21 48 9 94 -70 125 -215 26 -122 47 -171 88 -206 60 -51
138 -36 358 67 65 30 165 73 223 96 126 50 140 61 140 110 0 43 -36 87 -79 96
-113 25 -136 36 -192 93 -60 61 -63 70 -154 376 -40 134 -67 181 -166 281 -99
101 -130 157 -155 276 -20 93 -15 197 27 503 31 232 34 335 9 399 -5 14 -13
63 -16 109 -8 98 -23 131 -65 146 -40 14 -47 13 -86 -4z"/>
<path d="M6610 6401 c-9 -3 -37 -29 -63 -57 -28 -31 -69 -61 -100 -75 -47 -21
-67 -24 -212 -24 -226 -2 -223 -1 -125 -38 176 -67 305 -150 539 -346 260
-220 333 -268 477 -317 66 -23 96 -28 184 -28 100 -1 158 10 248 45 26 11 26
11 -25 25 -167 43 -289 144 -483 399 -63 83 -168 205 -235 272 -117 119 -172
158 -205 144z"/>
</g>
</svg>
